<svg xmlns="http://www.w3.org/2000/svg" viewBox="0 0 245.798 48.851"><defs><style>.cls-1{fill:#ecdccf}</style></defs><g id="Layer_2" data-name="Layer 2"><g id="Layer_1-2" data-name="Layer 1"><path class="cls-1" d="M0 0V48.851H25.912v-1.006h-.493l-16.97.072V0H0zM33.866 0V48.851h8.45V0h-8.45zM51.466 0v1.149h20.983l-2.113 4.525-17.25 36.999-2.887 6.178H83.503v-1.006H60.056L79.843 6.178 82.799 0H51.466zM84.489 0l1.478 5.459 11.83 43.392h10.491l11.971-43.967L121.527.43h-1.128l-1.197 4.167-11.126 40.877h-2.112L94.135 3.161 93.29 0h-8.801zM128.776 0V48.851h8.449V0h-8.449zM151.164 0V48.851h31.476v-.934h-23.026v-23.42h16.476v-1.15h-16.476V1.149h23.096V0h-31.546zM244.67 0l-1.126 4.166-10.985 41.236-.844-.861-10.986-41.38L219.885 0h-8.731l1.409 5.459 1.593 5.988-8.988 33.955-.914-.861-10.986-41.38L192.424 0h-8.733l1.409 5.459 11.549 43.392h8.519l9.44-35.7 9.501 35.7h8.731l11.83-44.397L245.798 0h-1.128z"/></g></g></svg>